<?xml version="1.0" encoding="utf-8"?>
<!-- Generator: Adobe Illustrator 16.0.0, SVG Export Plug-In . SVG Version: 6.00 Build 0)  -->
<!DOCTYPE svg PUBLIC "-//W3C//DTD SVG 1.1//EN" "http://www.w3.org/Graphics/SVG/1.1/DTD/svg11.dtd">
<svg version="1.1" id="Capa_1" xmlns="http://www.w3.org/2000/svg" xmlns:xlink="http://www.w3.org/1999/xlink" x="0px" y="0px"
	 width="516.4px" height="408px" viewBox="0 0 516.4 408" enable-background="new 0 0 516.4 408" xml:space="preserve">
<g>
	<g>
		<path fill="#FFFFFF" d="M344.199,143.45c0-42.1-34.398-76.5-76.5-76.5c-42.099,0-76.499,34.4-76.499,76.5h38.2
			c0-21,17.2-38.2,38.201-38.2c21,0,38.2,17.2,38.2,38.2s-17.2,38.2-38.2,38.2H38.2v38.2h229.499
			C309.801,220.05,344.199,185.55,344.199,143.45z"/>
		<path fill="#FFFFFF" d="M439.801,143.45c-42.102,0-76.5,34.4-76.5,76.5H401.6c0-21,17.201-38.2,38.201-38.2S478,198.95,478,219.95
			s-17.1,38.3-38.199,38.3H0v38.2h439.9c42.1,0,76.5-34.399,76.5-76.5C516.4,177.85,481.9,143.45,439.801,143.45z"/>
		<path fill="#FFFFFF" d="M382.5,334.75H114.7v38.2h267.8c11.5,0,19.1,7.6,19.1,19.1s-7.6,19.103-19.1,19.103
			s-19.1-7.603-19.1-19.103h-38.201c0,30.603,24.898,57.399,57.398,57.399s57.4-24.898,57.4-57.399
			C439.999,359.55,415,334.75,382.5,334.75z"/>
	</g>
</g>
</svg>
