<?xml version="1.0" encoding="utf-8"?>
<!-- Generator: Adobe Illustrator 16.0.0, SVG Export Plug-In . SVG Version: 6.00 Build 0)  -->
<!DOCTYPE svg PUBLIC "-//W3C//DTD SVG 1.1//EN" "http://www.w3.org/Graphics/SVG/1.1/DTD/svg11.dtd">
<svg version="1.1" id="Layer_1" xmlns="http://www.w3.org/2000/svg" xmlns:xlink="http://www.w3.org/1999/xlink" x="0px" y="0px"
	 width="215.141px" height="592.445px" viewBox="0 0 215.141 592.445" enable-background="new 0 0 215.141 592.445"
	 xml:space="preserve">
<g>
	<path fill="#FFFFFF" d="M167.784,413.234V75.71c0-32.739-26.788-59.527-59.528-59.527S48.729,42.97,48.729,75.71v337.523
		c-22.025,17.857-35.717,45.24-35.717,73.814c0,52.385,42.86,95.243,95.245,95.243s94.65-42.858,94.65-95.243
		C202.906,458.474,189.81,431.093,167.784,413.234z M108.256,562.054c-41.075,0-74.41-33.336-74.41-74.41
		c0-26.193,13.691-50.004,35.717-63.695V76.304c0-21.432,17.264-39.287,39.289-39.287c21.431,0,39.288,17.263,39.288,39.287v347.645
		c21.43,13.691,35.717,37.502,35.717,63.695C182.666,528.719,149.33,562.054,108.256,562.054z"/>
</g>
</svg>
